<mxfile host="app.diagrams.net" modified="2023-06-02T15:19:24.478Z" agent="Mozilla/5.0 (Windows NT 10.0; Win64; x64) AppleWebKit/537.36 (KHTML, like Gecko) Chrome/113.0.0.0 Safari/537.36 Edg/113.0.1774.57" etag="RqFVf0BFxWOGPJU5EJLg" version="21.3.6" type="device">
  <diagram name="페이지-1" id="1ZYEjAXaOIrbMav5gU2F">
    <mxGraphModel dx="1253" dy="1518" grid="0" gridSize="10" guides="1" tooltips="1" connect="1" arrows="1" fold="1" page="0" pageScale="1" pageWidth="827" pageHeight="1169" math="0" shadow="0">
      <root>
        <mxCell id="0" />
        <mxCell id="1" parent="0" />
        <mxCell id="3t_y-RV0TSokjo_L7L0G-1" value="사용자" style="shape=umlLifeline;perimeter=lifelinePerimeter;whiteSpace=wrap;html=1;container=1;dropTarget=0;collapsible=0;recursiveResize=0;outlineConnect=0;portConstraint=eastwest;newEdgeStyle={&quot;edgeStyle&quot;:&quot;elbowEdgeStyle&quot;,&quot;elbow&quot;:&quot;vertical&quot;,&quot;curved&quot;:0,&quot;rounded&quot;:0};fontSize=16;" parent="1" vertex="1">
          <mxGeometry x="-15" y="-50" width="100" height="300" as="geometry" />
        </mxCell>
        <mxCell id="3t_y-RV0TSokjo_L7L0G-2" value="시스템" style="shape=umlLifeline;perimeter=lifelinePerimeter;whiteSpace=wrap;html=1;container=1;dropTarget=0;collapsible=0;recursiveResize=0;outlineConnect=0;portConstraint=eastwest;newEdgeStyle={&quot;edgeStyle&quot;:&quot;elbowEdgeStyle&quot;,&quot;elbow&quot;:&quot;vertical&quot;,&quot;curved&quot;:0,&quot;rounded&quot;:0};fontSize=16;" parent="1" vertex="1">
          <mxGeometry x="202" y="-50" width="100" height="300" as="geometry" />
        </mxCell>
        <mxCell id="3t_y-RV0TSokjo_L7L0G-6" value="" style="html=1;points=[];perimeter=orthogonalPerimeter;outlineConnect=0;targetShapes=umlLifeline;portConstraint=eastwest;newEdgeStyle={&quot;edgeStyle&quot;:&quot;elbowEdgeStyle&quot;,&quot;elbow&quot;:&quot;vertical&quot;,&quot;curved&quot;:0,&quot;rounded&quot;:0};fontSize=16;" parent="3t_y-RV0TSokjo_L7L0G-2" vertex="1">
          <mxGeometry x="44" y="54" width="10" height="34" as="geometry" />
        </mxCell>
        <mxCell id="3t_y-RV0TSokjo_L7L0G-13" value="" style="html=1;points=[];perimeter=orthogonalPerimeter;outlineConnect=0;targetShapes=umlLifeline;portConstraint=eastwest;newEdgeStyle={&quot;edgeStyle&quot;:&quot;elbowEdgeStyle&quot;,&quot;elbow&quot;:&quot;vertical&quot;,&quot;curved&quot;:0,&quot;rounded&quot;:0};fontSize=16;" parent="3t_y-RV0TSokjo_L7L0G-2" vertex="1">
          <mxGeometry x="45" y="169" width="10" height="94" as="geometry" />
        </mxCell>
        <mxCell id="3t_y-RV0TSokjo_L7L0G-16" value="" style="html=1;points=[];perimeter=orthogonalPerimeter;outlineConnect=0;targetShapes=umlLifeline;portConstraint=eastwest;newEdgeStyle={&quot;edgeStyle&quot;:&quot;elbowEdgeStyle&quot;,&quot;elbow&quot;:&quot;vertical&quot;,&quot;curved&quot;:0,&quot;rounded&quot;:0};fontSize=16;" parent="3t_y-RV0TSokjo_L7L0G-2" vertex="1">
          <mxGeometry x="51" y="193" width="10" height="40" as="geometry" />
        </mxCell>
        <mxCell id="3t_y-RV0TSokjo_L7L0G-17" value="아이디 비밀번호 맞는지 확인" style="html=1;align=left;spacingLeft=2;endArrow=block;rounded=0;edgeStyle=orthogonalEdgeStyle;curved=0;rounded=0;fontSize=12;startSize=8;endSize=8;" parent="3t_y-RV0TSokjo_L7L0G-2" edge="1">
          <mxGeometry relative="1" as="geometry">
            <mxPoint x="52" y="174" as="sourcePoint" />
            <Array as="points">
              <mxPoint x="89" y="183.5" />
            </Array>
            <mxPoint x="61" y="211" as="targetPoint" />
          </mxGeometry>
        </mxCell>
        <mxCell id="3t_y-RV0TSokjo_L7L0G-7" value="로그인 버튼 클릭" style="html=1;verticalAlign=bottom;endArrow=block;edgeStyle=elbowEdgeStyle;elbow=vertical;curved=0;rounded=0;fontSize=12;startSize=8;endSize=8;" parent="1" edge="1">
          <mxGeometry y="10" relative="1" as="geometry">
            <mxPoint x="34.5" y="6" as="sourcePoint" />
            <mxPoint x="246" y="6" as="targetPoint" />
            <mxPoint as="offset" />
          </mxGeometry>
        </mxCell>
        <mxCell id="3t_y-RV0TSokjo_L7L0G-9" value="로그인 창을 보여준다." style="html=1;verticalAlign=bottom;endArrow=block;edgeStyle=elbowEdgeStyle;elbow=vertical;curved=0;rounded=0;fontSize=12;startSize=8;endSize=8;" parent="1" source="3t_y-RV0TSokjo_L7L0G-6" target="3t_y-RV0TSokjo_L7L0G-1" edge="1">
          <mxGeometry width="80" relative="1" as="geometry">
            <mxPoint x="160" y="200" as="sourcePoint" />
            <mxPoint x="240" y="200" as="targetPoint" />
            <Array as="points">
              <mxPoint x="202" y="44" />
            </Array>
          </mxGeometry>
        </mxCell>
        <mxCell id="3t_y-RV0TSokjo_L7L0G-14" value="아이디 비밀번호 입력 후 확인 버튼 클릭" style="html=1;verticalAlign=bottom;endArrow=block;edgeStyle=elbowEdgeStyle;elbow=vertical;curved=0;rounded=0;fontSize=12;startSize=8;endSize=8;" parent="1" edge="1">
          <mxGeometry relative="1" as="geometry">
            <mxPoint x="35" y="122" as="sourcePoint" />
            <mxPoint x="251.5" y="122" as="targetPoint" />
          </mxGeometry>
        </mxCell>
        <mxCell id="3t_y-RV0TSokjo_L7L0G-18" value="loop 아이디 비밀번호 확인" style="shape=umlFrame;whiteSpace=wrap;html=1;pointerEvents=0;fontSize=16;width=247;height=28;" parent="1" vertex="1">
          <mxGeometry x="-38" y="65" width="388" height="235" as="geometry" />
        </mxCell>
        <mxCell id="3t_y-RV0TSokjo_L7L0G-19" value="로그인 성공 알림" style="html=1;verticalAlign=bottom;endArrow=open;dashed=1;endSize=8;edgeStyle=elbowEdgeStyle;elbow=vertical;curved=0;rounded=0;fontSize=12;" parent="1" target="3t_y-RV0TSokjo_L7L0G-1" edge="1">
          <mxGeometry relative="1" as="geometry">
            <mxPoint x="243" y="210" as="sourcePoint" />
            <mxPoint x="163" y="210" as="targetPoint" />
          </mxGeometry>
        </mxCell>
        <mxCell id="BMKQyzHCi9uy5LNqbn66-1" value="UC014 로그인 한다." style="shape=umlFrame;whiteSpace=wrap;html=1;pointerEvents=0;fontSize=16;width=336;height=19;" vertex="1" parent="1">
          <mxGeometry x="-113" y="-122" width="525" height="504" as="geometry" />
        </mxCell>
      </root>
    </mxGraphModel>
  </diagram>
</mxfile>
